<svg xmlns="http://www.w3.org/2000/svg" width="31" height="31" viewBox="0 0 31 31"><g><g clip-path="url(#clip-73765814-68e6-4771-9989-e7c2d1d2d5e2)"><g><path fill="#04afdb" d="M28.25 22.445c0 3.2-2.604 5.805-5.805 5.805H8.555a5.81 5.81 0 0 1-5.805-5.805V8.555c0-3.2 2.604-5.805 5.805-5.805h13.89c3.2 0 5.805 2.604 5.805 5.805v13.89zM22.445 0H8.555C3.838 0 0 3.838 0 8.555v13.89C0 27.162 3.838 31 8.555 31h13.89C27.162 31 31 27.162 31 22.445V8.555C31 3.838 27.162 0 22.445 0z"/></g><g><path fill="#04afdb" d="M15.5 20.737a5.243 5.243 0 0 1-5.237-5.237 5.243 5.243 0 0 1 5.237-5.237 5.243 5.243 0 0 1 5.237 5.237 5.243 5.243 0 0 1-5.237 5.237zm0-13.225c-4.405 0-7.988 3.584-7.988 7.988 0 4.405 3.583 7.988 7.988 7.988s7.988-3.583 7.988-7.988c0-4.404-3.583-7.988-7.988-7.988z"/></g><g><path fill="#04afdb" d="M23.823 5.18c-.53 0-1.05.215-1.425.59a2.027 2.027 0 0 0-.592 1.427c0 .53.216 1.05.592 1.427.374.374.895.59 1.425.59.532 0 1.05-.216 1.427-.59.375-.376.59-.897.59-1.427 0-.532-.215-1.052-.59-1.426a2.026 2.026 0 0 0-1.427-.59z"/></g></g></g></svg>