<svg xmlns="http://www.w3.org/2000/svg" width="31" height="31" viewBox="0 0 31 31"><g><g clip-path="url(#clip-7d0eb480-9c20-4025-82e6-03df827e1564)"><path fill="#04afdb" d="M18.818 28.776c1.38-1.328 2.528-2.976 3.39-4.84h4.06a13.715 13.715 0 0 1-7.45 4.84zm-10.027-4.84c.863 1.864 2.012 3.512 3.39 4.84a13.715 13.715 0 0 1-7.448-4.84zm3.39-21.712c-1.378 1.328-2.527 2.976-3.39 4.84H4.733a13.715 13.715 0 0 1 7.449-4.84zm10.028 4.84c-.863-1.864-2.012-3.512-3.39-4.84a13.715 13.715 0 0 1 7.448 4.84zm6.944 7.528h-5.158a20.4 20.4 0 0 0-1.059-5.71h4.537a13.582 13.582 0 0 1 1.68 5.71zm-8.142-5.71a18.465 18.465 0 0 1 1.166 5.71H8.823a18.465 18.465 0 0 1 1.166-5.71zM15.5 1.95c1.933 1.15 3.537 2.933 4.69 5.114h-9.38c1.153-2.18 2.757-3.964 4.69-5.114zM3.527 8.88h4.537a20.4 20.4 0 0 0-1.06 5.71H1.848c.136-2.06.73-3.997 1.68-5.71zm-1.68 7.527h5.158a20.4 20.4 0 0 0 1.059 5.71H3.527a13.582 13.582 0 0 1-1.68-5.71zm8.142 5.71a18.465 18.465 0 0 1-1.166-5.71h13.354a18.465 18.465 0 0 1-1.166 5.71zM15.5 29.05c-1.933-1.15-3.537-2.933-4.69-5.114h9.38c-1.153 2.18-2.757 3.964-4.69 5.114zm11.973-6.93h-4.537a20.4 20.4 0 0 0 1.06-5.71h5.157a13.582 13.582 0 0 1-1.68 5.71zM26.46 4.539A15.398 15.398 0 0 0 15.5 0C11.36 0 7.467 1.612 4.54 4.54A15.399 15.399 0 0 0 0 15.5c0 4.14 1.612 8.033 4.54 10.96A15.399 15.399 0 0 0 15.5 31c4.14 0 8.033-1.612 10.96-4.54A15.399 15.399 0 0 0 31 15.5c0-4.14-1.612-8.033-4.54-10.96z"/></g></g></svg>