<svg xmlns="http://www.w3.org/2000/svg" width="20" height="28" viewBox="0 0 20 28"><g><g clip-path="url(#clip-a289b74e-6110-4eb4-bd23-caf4bae88bce)"><g><g><g><path fill="#04afdb" d="M16.854 14.045L9.93 25.604 2.827 14.156a8.193 8.193 0 0 1-1.235-4.312c0-4.523 3.691-8.214 8.214-8.214 4.524 0 8.209 3.69 8.209 8.214a8.196 8.196 0 0 1-1.161 4.2zM9.806 0C4.38 0-.037 4.416-.037 9.844c0 1.834.508 3.623 1.47 5.176l7.813 12.592a.82.82 0 0 0 .697.388h.007a.82.82 0 0 0 .697-.399l7.615-12.714a9.832 9.832 0 0 0 1.388-5.043C19.65 4.416 15.234 0 9.806 0z"/></g></g></g><g><g><g><path fill="#04afdb" d="M9.806 13.136a3.295 3.295 0 0 1-3.292-3.292 3.304 3.304 0 0 1 3.292-3.292 3.299 3.299 0 0 1 3.287 3.292 3.288 3.288 0 0 1-3.287 3.292zm0-8.214a4.927 4.927 0 0 0-4.921 4.922 4.916 4.916 0 0 0 4.921 4.922c2.784 0 4.922-2.255 4.922-4.922a4.927 4.927 0 0 0-4.922-4.922z"/></g></g></g></g></g></svg>