<svg xmlns="http://www.w3.org/2000/svg" width="21" height="31" viewBox="0 0 21 31"><g><g clip-path="url(#clip-ae095c44-2a04-49fd-9e80-377a98a02f05)"><g><path fill="#04afdb" d="M17.892 27.055a1.29 1.29 0 0 1-1.288 1.288H4.396a1.29 1.29 0 0 1-1.288-1.288V3.945c0-.71.578-1.288 1.288-1.288h12.208c.71 0 1.288.578 1.288 1.288zM16.604 0H4.396A3.95 3.95 0 0 0 .45 3.945v23.11A3.95 3.95 0 0 0 4.396 31h12.208a3.95 3.95 0 0 0 3.945-3.945V3.945A3.95 3.95 0 0 0 16.604 0z"/></g><g><path fill="#04afdb" d="M8.756 24.867a1.744 1.744 0 1 1 3.488 0 1.744 1.744 0 0 1-3.488 0z"/></g><g><path fill="#04afdb" d="M12.61 4.655H8.467a1.107 1.107 0 1 0 0 2.215h4.143a1.107 1.107 0 1 0 0-2.215z"/></g></g></g></svg>